<svg xmlns="http://www.w3.org/2000/svg" xmlns:xlink="http://www.w3.org/1999/xlink" preserveAspectRatio="xMidYMid meet" version="1.0" viewBox="-0.1 0.0 500.3 271.6" zoomAndPan="magnify" style="fill: rgb(0, 0, 0);" original_string_length="33081"><g id="__id0_sl5j3brtnh"><path d="M211.648,50.3667c-4.4736,5.4009-8.5538,11.5221-12.2405,18.3591c-3.6868,6.8385-6.357,13.408-8.0114,19.71 c-0.1539,0.7292-0.2847,1.4361-0.39,2.1221c-0.6979,4.5431-0.2108,8.4869,1.4623,11.8314c1.9308,3.9019,5.0429,5.9583,9.3409,6.1735 c5.2858-0.0867,9.6443-1.3928,13.0774-3.9214c3.4319-2.5301,6.2-5.6161,8.303-9.261c-0.0624,3.4731,0.5832,6.3887,1.9364,8.7469 c1.3521,2.3552,3.4286,3.7704,6.2288,4.2427c0.6718,0.0867,1.3304,0.1285,1.9738,0.1285c3.9406,0,7.8143-1.2728,11.6235-3.785 c-0.2559,0.563-0.5217,1.1344-0.7748,1.6949c-2.9074,6.4425-5.0348,12.059-6.3969,16.8333 c0.2144-0.0306,0.4132-0.0613,0.6276-0.0762c3.213-0.2911,4.1314-0.3217,4.5753-0.3217c4.1934,0,7.6821,1.4231,10.3907,4.2389 c1.5153,1.5916,2.5248,3.5504,3.015,5.8612c0.0149-0.1838,0.0456-0.3826,0.0762-0.5817c0.0157-0.1375,0.1681-0.9486,0.4438-2.4483 c0.2758-1.4996,0.9183-3.5197,1.9592-6.0445c0.0762-0.2605,0.1681-0.5358,0.26-0.8418c2.4942-6.5497,6.2123-14.7825,11.1096-24.6838 c0.0306,2.6167,0.5813,4.6521,1.6677,6.1365c1.0865,1.4843,2.4337,2.5252,4.0559,3.1525c1.6065,0.6123,3.1675,0.9336,4.6671,0.9336 c2.1886,0,4.3458-0.3213,6.4888-0.9336c2.1266-0.6273,4.3152-1.7444,6.5651-3.3819c2.2341-1.6222,4.6207-3.9636,7.1463-7.0089 c4.5296-5.4476,8.6154-11.5688,12.273-18.3942c3.6726-6.8097,6.32-13.3747,7.9728-19.664c0.1681-0.7805,0.3056-1.5457,0.4281-2.326 c0.689-4.4534,0.1375-8.4779-1.6528-12.0896c-1.7746-3.596-4.8203-5.5088-9.1205-5.7233c-4.7134,0.046-8.7685,1.2703-12.1347,3.673 c-3.367,2.4026-6.2288,5.4019-8.5854,8.9979c0.3982-4.8049-0.7189-8.2787-3.3513-10.421c-2.0967-1.6682-4.5909-2.5099-7.4677-2.5099 c-0.7195,0-2.2805,0.1838-4.6678,0.5201c-2.3866,0.3523-5.3403,2.1426-8.8448,5.4023c-0.612,0.6426-0.9489,1.1784-1.0103,1.6065 c-0.015,0.046-0.015,0.1992,0,0.4592c0,0.2447,0.1689,0.5357,0.5051,0.8264c0.337,0.306,0.6732,0.5354,0.9945,0.7039 c0.1076,0.0919,0.1995,0.1532,0.2915,0.1991c0.9639,0.6426,1.652,1.5916,2.0653,2.8308c0.1995,0.6429,0.2301,1.4081,0.0919,2.3108 c-0.1226,0.8571-0.4282,1.8669-0.9026,3.03c-3.1218,7.162-6.9633,15.2723-11.5385,24.3621 c-1.1586,2.3548-2.2932,4.6882-3.411,7.0068c-1.5644,1.4221-3.2038,2.7146-4.9258,3.8644 c-0.9004,0.5574-1.6076,0.8368-2.1221,0.8368c-0.5574,0-0.9146-0.3228-1.0738-0.9654c-0.0821-0.2988-0.0836-0.7068-0.0052-1.2209 c0.244-1.5856,1.1709-4.1366,2.7834-7.653l11.376-24.2441c1.8157-3.7286,2.8618-6.3543,3.1394-7.8771 c0.2753-1.52,0.4177-2.3029,0.4244-2.3463c0.4412-2.8723-0.1472-5.1871-1.7627-6.9446c-1.7029-1.7574-5.0612-2.6362-10.0769-2.6362 c-1.4578,0-3.1607,0.408-5.1072,1.221c-1.948,0.8159-3.6957,1.8008-5.2447,2.9589c-1.7365-2.6584-4.5113-3.9886-8.3262-3.9886 c-2.1442,0-4.2819,0.3124-6.4134,0.934c-2.1318,0.6217-4.3305,1.747-6.5949,3.3745 C216.5676,44.9883,214.1732,47.3226,211.648,50.3667z M275.2271,90.0038c0.26-1.6069,0.7345-3.1065,1.4227-4.5296l1.6984-3.4738 c1.1022-2.1426,2.143-4.2236,3.1376-6.2284c1.1477-2.1116,2.2185-4.2539,3.2444-6.4425c1.2239-2.6474,2.4942-5.1109,3.8407-7.3914 c2.1579-3.4275,4.2389-5.5854,6.2743-6.4881c0.6426-0.3063,1.224-0.4595,1.7291-0.4595c1.0715,0,1.806,0.643,2.2192,1.9285 c0.2294,0.7346,0.26,1.6831,0.0762,2.8309c-0.2749,1.8516-1.0864,4.2695-2.4023,7.2689c-2.4942,5.402-5.2028,10.4673-8.0803,15.1807 c-2.8918,4.7131-5.5547,7.9878-7.9728,9.8397c-1.5759,1.0252-2.7699,1.5457-3.5807,1.5457c-0.3519,0-0.7651-0.1992-1.2702-0.5818 C275.0739,92.6206,274.9514,91.626,275.2271,90.0038z M224.1593,65.4141c2.8887-4.7164,5.5466-7.9952,7.9735-9.8378 c1.1478-0.7726,2.0429-1.1581,2.6863-1.1581c0.4707,0,0.8271,0.1927,1.0685,0.5784c0.5044,0.8996,0.6219,2.2297,0.3519,3.9871 l-0.0493,0.3213c-0.3396,1.9293-0.8301,3.7301-1.4728,5.4024c-1.197,3.0441-2.8543,6.5799-4.9734,10.6104 c-2.1202,4.029-4.0432,7.4811-5.77,10.3519c-2.1568,3.4312-3.9005,5.4353-5.2324,6.0136c-1.3326,0.5783-2.2554,0.8668-2.7695,0.8668 c-1.0723,0-1.8128-0.6202-2.2215-1.8636c-0.2316-0.7278-0.2544-1.6932-0.0702-2.8932c0.2832-1.8441,1.0804-4.2457,2.3926-7.2032 C218.5743,75.1892,221.2691,70.1305,224.1593,65.4141z M325.8679,47.602c0.3396,0.3004,0.668,0.5365,0.9844,0.7068 c0.1155,0.0867,0.213,0.1494,0.2918,0.1928c0.9729,0.6426,1.6633,1.5871,2.0736,2.8304c0.2006,0.6426,0.2327,1.4138,0.0941,2.3149 c-0.1315,0.8578-0.4367,1.8635-0.9138,3.0217c-3.1152,7.1599-6.9559,15.2836-11.5243,24.3727 c-4.295,8.702-8.2949,17.159-11.9988,25.3679c-3.7051,8.2089-6.1492,15.0579-7.3358,20.5439l-0.0792,0.5156 c-0.711,4.6297-0.1042,8.3598,1.8184,11.1903c1.9237,2.8274,4.6551,4.5864,8.1924,5.2723c1.0827,0.2137,2.1804,0.3214,3.2952,0.3214 c2.5286,0,5.0979-0.5365,7.7061-1.608c0.8727-0.3856,1.4227-0.7502,1.6469-1.0924c0.0616-0.1285,0.1009-0.2361,0.114-0.3228 c0.0392-0.2571-0.0288-0.5142-0.2033-0.7697c-0.1758-0.2571-0.4509-0.559-0.8264-0.9012c-0.1087-0.1285-0.2395-0.257-0.3912-0.3855 c-1.5168-1.8442-2.0682-4.1157-1.6535-6.8176c0.0198-0.1286,0.1658-0.9431,0.4393-2.4434c0.2728-1.5004,0.9262-3.5149,1.9577-6.0435 c0.0815-0.257,0.1678-0.5365,0.2571-0.8369c2.5076-6.559,6.2153-14.7903,11.1237-24.6938c0.0262,2.6167,0.5799,4.6626,1.6611,6.1421 c1.0797,1.478,2.4299,2.5286,4.0495,3.1502c1.6189,0.6217,3.1787,0.9326,4.6798,0.9326c2.1864,0,4.3447-0.3109,6.4773-0.9326 c2.131-0.6216,4.3196-1.7469,6.5627-3.3745c2.2443-1.6319,4.6287-3.9662,7.1539-7.0103c4.5229-5.4442,8.6154-11.5759,12.2775-18.392 c3.6613-6.8161,6.3199-13.3751,7.9739-19.6771c0.161-0.7726,0.3015-1.5438,0.4203-2.3149c0.6848-4.4594,0.1352-8.4883-1.648-12.0899 c-1.784-3.6001-4.8237-5.507-9.1205-5.7237c-4.7232,0.0449-8.769,1.2658-12.1381,3.6673c-3.37,2.4016-6.2314,5.4009-8.5848,9.0025 c0.3934-4.8001-0.7229-8.2732-3.3512-10.4177c-2.1016-1.6722-4.5887-2.5092-7.4602-2.5092c-0.7301,0-2.2888,0.1733-4.6776,0.5156 c-2.3892,0.3437-5.3344,2.143-8.8351,5.4008c-0.6134,0.6441-0.9527,1.1806-1.0184,1.608c-0.0067,0.0434-0.0075,0.1928-0.0052,0.4513 C325.3568,47.0237,325.5279,47.3031,325.8679,47.602z M335.9127,90.0109c0.2682-1.608,0.7465-3.1188,1.4361-4.5341l1.6902-3.4715 c1.1011-2.143,2.149-4.2233,3.1447-6.2378c1.1361-2.0996,2.2166-4.2456,3.2384-6.4305c1.2221-2.6586,2.5009-5.1229,3.8366-7.3944 c2.1557-3.4297,4.2457-5.5952,6.2706-6.4948c0.6464-0.3004,1.2269-0.4513,1.741-0.4513c1.0715,0,1.809,0.6426,2.2118,1.9293 c0.2309,0.7293,0.2578,1.6722,0.0799,2.8304c-0.2832,1.8426-1.0842,4.2651-2.4019,7.2659c-2.502,5.4009-5.198,10.461-8.0863,15.176 c-2.8899,4.7164-5.5477,7.9951-7.9739,9.8378c-1.5729,1.0296-2.767,1.5437-3.5814,1.5437c-0.343,0-0.7637-0.1928-1.2613-0.5783 C335.7588,92.6157,335.6437,91.6189,335.9127,90.0109z M389.2623,56.7972c-2.3926,5.5309-4.4571,10.1816-6.1944,13.955 c-1.6805,3.1295-3.2594,6.4306-4.7366,9.9021c-1.4952,3.6016-2.5252,6.5381-3.0894,8.8112 c-0.2305,0.9415-0.4117,1.8426-0.5432,2.6989c-0.5727,3.7301-0.4151,7.0313,0.4726,9.9036c1.0398,3.5582,3.3326,5.6594,6.877,6.302 c0.6296,0.0867,1.2445,0.1285,1.8453,0.1285c3.386,0,6.7316-0.9863,10.0358-2.9575c3.8766-2.3582,7.1826-5.3157,9.9155-8.8739 c-1.7907,3.5582-3.5597,6.9865-5.3097,10.2877c-7.4564,1.9293-12.9686,4.9525-16.5373,9.0682 c-3.5687,4.1156-5.6915,8.3807-6.37,12.7967l-0.1383,0.8997c-0.5036,4.6716,0.1996,8.5421,2.1079,11.6072 c1.9084,3.0651,4.5767,4.5984,8.0072,4.5984c0.2992,0,0.6243-0.0224,0.9744-0.0643c3.1614-0.2152,6.0643-1.0401,8.7076-2.4748 c2.6425-1.4376,5.8033-4.3637,9.4825-8.7797c2.1726-2.699,4.3324-6.0106,6.478-9.935c2.146-3.9229,4.1261-7.7486,5.943-11.4787 c0.5567-1.1148,1.0853-2.1848,1.5871-3.2145c1.7074-0.5141,4.9944-2.4434,9.8595-5.7879c4.864-3.3446,9.9958-7.8652,15.3948-13.568 c5.3983-5.7012,9.7486-12.3245,13.0516-19.8699l0.0299-0.1943c0.105-0.6844-0.2017-1.2-0.9206-1.5422 c-0.5611-0.2585-1.1843-0.3871-1.8699-0.3871c-0.3003,0-0.625,0.0225-0.974,0.0658c-1.049,0.1285-1.8078,0.6008-2.2752,1.4152 c-2.4397,4.7164-5.5309,9.1414-9.2745,13.278c-3.7442,4.1381-7.2913,7.5559-10.6422,10.2563 c-3.3516,2.7019-5.6354,4.2457-6.8523,4.6312c2.2006-4.8434,4.8532-10.2458,7.9549-16.2056 c2.5378-4.8016,4.9151-9.5374,7.1344-14.212c2.2177-4.6716,3.9199-8.9157,5.1064-12.7325c0.2242-0.8997,0.3987-1.7574,0.5238-2.5719 c0.652-4.2442-0.0762-7.4587-2.1837-9.6466c-2.1808-2.2715-5.0288-3.4073-8.5437-3.4073c-0.5144,0-1.0547,0.0225-1.6177,0.0643 c-4.261,0.3856-8.284,2.2939-12.0679,5.7222c-0.6202,0.6874-0.9628,1.2448-1.0285,1.6722l-0.0198,0.1286 c0.0131,0.4722,0.1898,0.8578,0.5294,1.1581c0.34,0.3004,0.6676,0.5365,0.9846,0.7084c0.1225,0.0418,0.2189,0.1076,0.2921,0.1913 c1.0155,0.6441,1.6768,1.4376,1.9816,2.3791c0.3053,0.9445,0.3923,1.8441,0.2608,2.7019c-0.1382,0.8997-0.4685,1.9293-0.9886,3.086 c-1.7081,3.8586-3.6364,8.0386-5.7849,12.5413c-2.152,4.8001-4.6055,8.98-7.3597,12.5382 c-2.7546,3.5583-6.4032,6.7309-10.947,9.5166c-0.9001,0.5574-1.6069,0.8368-2.1214,0.8368c-0.4293,0-0.7211-0.1942-0.8757-0.5798 c-0.1256-0.2989-0.139-0.7696-0.04-1.4137c0.1973-1.2852,0.7864-3.1727,1.7694-5.6594c1.6966-4.0723,3.686-8.2299,5.9676-12.474 c3.5336-6.2602,6.1518-12.2842,7.8555-18.0707c0.121-0.514,0.2219-1.0281,0.3011-1.5437c0.7375-4.8016-0.0422-8.3793-2.3373-10.739 c-2.1445-2.2282-4.9099-3.3445-8.2963-3.3445c-0.5574,0-1.1186,0.0224-1.682,0.0658c-4.1328,0.3855-8.0721,2.3148-11.8205,5.7864 c-0.6071,0.6022-0.9434,1.1163-1.0091,1.5437l-0.0292,0.1928c-0.0295,0.4722,0.1256,0.8578,0.4648,1.1582 c0.34,0.2989,0.6684,0.535,0.9848,0.7069l0.3561,0.1942c0.9725,0.6426,1.5994,1.4451,1.8803,2.4105 c0.2799,0.964,0.3486,1.9189,0.204,2.8604C389.9707,54.6961,389.6905,55.6839,389.2623,56.7972z M389.8257,124.0929 c-1.5213,2.5076-2.8241,4.3622-3.9087,5.5623c-0.4027,0.3856-0.7543,0.5799-1.0535,0.5799c-0.2575,0-0.4846-0.1943-0.683-0.5799 c-0.2443-0.6426-0.2839-1.5004-0.1192-2.5734c0.0594-0.3855,0.1461-0.8129,0.2619-1.2837c0.4775-1.7156,1.5012-3.4955,3.0707-5.3396 c1.5691-1.8426,3.8418-3.3864,6.8198-4.6282C392.8097,118.8295,391.3463,121.5852,389.8257,124.0929z M125.4799,144.4963 c1.7672,1.4391,2.6306,3.5328,2.5891,6.2826c-0.0172,0.3811-0.0538,0.7621-0.1121,1.1417c-0.3508,2.285-1.3532,4.3997-3.0053,6.3455 c-1.9102,2.243-4.2456,3.6808-7.0088,4.3159c-0.6968,0.127-1.3839,0.1898-2.0601,0.1898c-1.8195,0-3.3879-0.5276-4.706-1.5856 c-1.7679-1.4391-2.6526-3.5312-2.6518-6.2841c0.0089-0.3362,0.0399-0.6755,0.0919-1.0147c0.3639-2.3687,1.3932-4.5251,3.0882-6.4724 c1.9091-2.2416,4.2464-3.6808,7.0089-4.3144c0.745-0.1704,1.4559-0.254,2.1333-0.254 C122.6655,142.8465,124.2104,143.3949,125.4799,144.4963z M318.0147,239.3671c-5.1917-2.285-13.0755-3.4267-23.6516-3.4267 c-2.4113,0-4.9593,0.0643-7.6444,0.1913c-9.8344,0.674-19.5385,1.6065-29.1126,2.7916c-1.2968-5.3306-1.4242-11.3816-0.3848-18.1499 c0.0194-0.127,0.3213-1.9562,0.9064-5.489c0.5844-3.5313,2.0033-8.6408,4.2576-15.3254c2.2532-6.6845,4.4388-12.3738,6.5561-17.0693 c1.262-2.7079,2.0847-5.3097,2.4684-7.8069c0.3183-2.0728,0.2335-4.6208-0.2533-7.647c-0.4872-3.0233-3.5302-5.0452-9.1276-6.0599 c-0.7069-0.0837-1.3984-0.127-2.0747-0.127c-3.3422,0-6.6745,1.0371-9.9966,3.1099c-3.3228,2.0727-6.4969,4.9719-9.521,8.6945 c2.7155-5.2887,5.1984-10.576,7.4498-15.8663c2.2498-5.2873,4.036-10.5761,5.3556-15.8634l0.2048-1.3345 c0.7408-4.8225-0.0187-8.4181-2.2776-10.7868c-2.1161-2.1998-4.8453-3.2997-8.1868-3.2997c-0.5507,0-1.9835,0.1061-4.3006,0.3168 c-2.3171,0.2123-5.3254,2.031-9.0241,5.4562c-0.6053,0.6351-0.9411,1.1657-1.0058,1.5886 c-0.0063,0.0418-0.0078,0.1898-0.0044,0.4438c0.0026,0.2541,0.1614,0.5291,0.4763,0.8249c0.3135,0.2959,0.6483,0.5291,1.0031,0.6979 c0.114,0.0852,0.2089,0.148,0.2881,0.1898c0.9594,0.6353,1.6385,1.5872,2.0361,2.8574c0.2048,0.5918,0.2399,1.3315,0.1032,2.2192 c-0.1301,0.8474-0.4312,1.8412-0.9019,2.9828c-3.0748,7.0657-6.8654,15.0818-11.3734,24.0513 c-4.2382,8.5885-8.185,16.9334-11.8403,25.0347c-2.7763,6.1517-4.8314,11.5252-6.1745,16.1286 c-1.9871,1.8682-4.1771,3.5504-6.5824,5.0355c-0.9732,0.55-2.0305,0.8249-3.173,0.8249c-0.3392,0-1.0057-0.0627-2.001-0.1898 c-0.9961-0.127-1.8636-0.9534-2.6026-2.4762c-0.4203-0.8444-0.5264-1.9458-0.3183-3.2997c0.1689-1.0984,0.5294-2.3478,1.0827-3.7451 c1.2516-2.9186,3.2586-7.4437,6.0203-13.5784c2.4389-5.4158,4.9742-11.1065,7.6037-17.0708 c2.6295-5.9658,4.8696-11.2531,6.7205-15.8664h6.1556c1.0154,0,2.137-0.8981,3.3647-2.6959c1.228-1.7963,2.279-3.754,3.1543-5.8686 c0.4517-1.0177,0.7674-1.9682,0.9464-2.8574l0.0583-0.3796c0.1038-0.6769,0.0131-1.2583-0.2713-1.7455 c-0.285-0.4871-0.9982-0.7307-2.1407-0.7307h-5.584c0.4812-1.4795,0.8175-2.7064,1.0095-3.6808l0.0972-0.6336 c0.7408-4.8226-0.1095-8.3763-2.5503-10.6613c-2.149-1.9891-4.7889-2.9829-7.919-2.9829c-0.6343,0-2.1262,0.1375-4.4735,0.4125 c-2.3485,0.2764-5.3202,2.0623-8.915,5.362c-0.5986,0.5933-0.9337,1.1223-1.0051,1.5871c-0.0067,0.0418-0.01,0.2017-0.0097,0.4767 c-0.0007,0.275,0.1569,0.5604,0.4715,0.8563c0.3131,0.2959,0.6262,0.529,0.94,0.6979c0.1618,0.0418,0.2787,0.1061,0.3512,0.1898 c0.9594,0.6351,1.6416,1.5662,2.0466,2.7916c0.1977,0.6351,0.2294,1.3973,0.0931,2.285c-0.1301,0.8473-0.4316,1.8411-0.9023,2.9828 c-0.056,0.0852-0.0867,0.1495-0.0927,0.1898l-0.0194,0.1271h-6.4731c-1.0155,0-2.016,0.3183-3.0019,0.9519 c-0.986,0.6352-1.8782,1.756-2.6739,3.3625c-0.371,0.7636-0.7532,1.6618-1.144,2.6974c-0.3916,1.0372-0.7166,1.9801-0.9736,2.8245 c-0.1756,0.5933-0.3023,1.1417-0.3804,1.6498c-0.0975,0.6352-0.0762,1.2598,0.0617,1.8726c0.1375,0.6142,0.4823,0.919,1.033,0.919 h7.3608c-0.6377,1.3973-1.3368,2.9202-2.0982,4.57c-3.3045,7.1927-6.8788,15.1042-10.7206,23.733 c-3.8426,8.6304-6.6958,15.5705-8.5598,20.8159c-0.0529,0.1683-0.0874,0.3262-0.1365,0.4924 c-1.9042,1.9338-3.5479,3.4142-4.921,4.4243c-2.0993,1.5452-3.5507,2.3179-4.354,2.3179c-0.5077,0-0.8492-0.2542-1.0248-0.7622 c-0.0755-0.3377-0.0702-0.7831,0.0138-1.3315c0.2537-1.6514,1.2423-4.2308,2.9661-7.7442c0.5496-1.0984,1.8643-4.0813,3.9445-8.9471 c2.0795-4.8629,4.1568-9.2969,6.2303-13.2945c2.0735-3.9976,3.4256-8.0475,4.0558-12.1526 c0.3377-2.1998,0.2966-3.9962-0.1233-5.3934c-0.671-2.2417-2.826-3.364-6.4638-3.364c-2.0735,0-4.6039,0.3602-7.5906,1.079 c-7.0656,1.6498-11.5706,2.4747-13.5163,2.4747c-0.3392,0-0.5896-0.0209-0.7517-0.0627c-1.2598-0.3393-2.1931-0.7398-2.7976-1.206 c-0.0721-0.0837-0.1162-0.2107-0.1315-0.3811c-0.2085-0.2959-0.4229-0.6232-0.6426-0.9833 c-0.2201-0.3587-0.5832-0.5395-1.0909-0.5395c-0.4659,0-1.0678,0.3392-1.806,1.0162c-4.3376,3.7226-6.8247,6.9072-7.4632,9.5494 c-0.6389,2.6451-0.9946,4.1993-1.0663,4.6641c-0.6041,3.9363,0.962,6.1346,4.6977,6.6009 c-5.4486,8.2074-11.5302,15.3672-18.2439,21.4809c-3.1682,2.8851-6.1022,5.3427-8.8187,7.403 c0.0103-0.1465,0.014-0.2831,0.0403-0.4539c0.2339-1.5243,1.1664-4.02,2.7999-7.4901c3.1584-6.5142,5.4752-10.9975,6.9528-13.4513 c1.0409-1.8202,1.9099-3.491,2.61-5.0138c0.6994-1.5244,1.4126-3.5538,2.1415-6.0928c0.2272-0.9296,0.4061-1.8187,0.5362-2.6646 c0.6302-4.1037-0.0737-7.2345-2.1106-9.3925c-2.1945-2.2416-5.0265-3.3639-8.495-3.3639c-0.5074,0-1.0402,0.0224-1.5961,0.0642 c-4.2053,0.3811-8.1562,2.285-11.8557,5.7117c-0.5989,0.5918-0.9305,1.0999-0.9953,1.5229l-0.0295,0.1898 c0.0142,0.4662,0.1771,0.8473,0.491,1.1417c0.3142,0.2974,0.6276,0.5305,0.9399,0.6994l0.3512,0.1898 c0.9598,0.6335,1.5909,1.4182,1.8927,2.3476c0.3012,0.9326,0.3834,1.8397,0.2466,2.7289c-0.136,0.8891-0.4408,1.9054-0.9116,3.0471 c-2.063,4.6103-4.1665,8.6737-6.314,12.1841c-1.5385,2.5809-2.9552,5.1931-4.2494,7.8353 c-1.2949,2.6466-2.3574,5.5757-3.1906,8.7902c-0.2271,0.931-0.4057,1.8187-0.5357,2.6661c-0.5657,3.6807-0.3467,6.9386,0.656,9.772 c1.2382,3.5104,3.627,5.5847,7.1677,6.2183c0.6631,0.0837,1.3132,0.1271,1.948,0.1271c4.1881,0,8.3221-1.4392,12.4026-4.3144 c4.688-3.2564,8.9789-7.2988,12.8719-12.1215c3.8568-4.7789,6.9785-9.1722,9.3673-13.1836 c0.6119-0.7773,1.2274-1.5745,1.8474-2.3958c5.1255-6.7892,8.8575-11.8762,11.197-15.2611 c1.8318-0.6351,2.9777-0.8668,3.4387-0.6979c0.4599,0.1689,0.4139,0.677-0.1386,1.5228c-1.5748,2.5391-3.9838,7.2017-7.226,13.9924 c-3.2432,6.7907-5.3044,11.6671-6.1809,14.6274c-0.3452,1.1418-0.5985,2.2417-0.761,3.2997 c-0.5134,3.3431-0.1939,6.2184,0.959,8.6304c1.4944,3.2145,3.97,5.1408,7.4262,5.7744c0.6631,0.0837,1.3132,0.1271,1.948,0.1271 c4.2296,0,8.4484-1.4392,12.6559-4.3144c3.5264-2.3713,6.8621-5.1313,10.0142-8.2679c0.4254,1.9462,1.2017,3.8251,2.3403,5.6346 c2.3283,3.7017,6.0307,5.9747,11.1047,6.8205c0.6631,0.0837,1.3132,0.1271,1.9476,0.1271c4.23,0,8.5377-1.5333,12.9223-4.6014 c2.4732-1.73,4.8656-3.75,7.1827-6.0391c0.291,1.8923,0.9168,3.5485,1.8864,4.9617c1.9016,2.7707,4.5976,4.4938,8.0897,5.1723 c1.0674,0.2107,2.1725,0.3168,3.315,0.3168c2.4113,0,4.9249-0.5291,7.5416-1.5871c0.8608-0.3796,1.4033-0.7397,1.6249-1.0775 c0.0612-0.127,0.099-0.2346,0.1124-0.3183c0.0389-0.2541-0.0284-0.5081-0.2006-0.7607c-0.173-0.254-0.448-0.5305-0.8253-0.8264 c-0.1075-0.127-0.2365-0.254-0.3856-0.3811c-1.4974-1.8172-2.0414-4.0603-1.6319-6.7264c0.0194-0.127,0.1637-0.928,0.4334-2.4105 c0.269-1.4795,0.9167-3.4895,1.942-6.03l0.2432-0.7607c1.4698-4.0618,3.1992-8.1641,5.1913-12.3111 c2.1071-3.8063,4.4825-7.3601,7.1262-10.6598c2.6429-3.2997,5.8357-6.1137,9.5778-8.4405c0.8878-0.5499,1.5863-0.8264,2.0944-0.8264 c0.5074,0,0.8205,0.2974,0.9419,0.8892c0.0452,0.254,0.0329,0.6142-0.0385,1.079c-0.2406,1.5661-1.1238,4.1455-2.6489,7.7411 c-1.6297,3.7241-3.3307,8.7379-5.102,15.0399c-1.4017,4.9929-2.5211,10.2174-3.3594,15.6751 c-0.2212,1.4391-0.6053,4.2845-1.1522,8.5347c-0.5481,4.2531-0.2997,9.3177,0.7433,15.1998 c-4.7874,0.5903-9.6233,1.2254-14.5079,1.9039c-9.7754,1.3958-19.1735,2.5377-28.1939,3.4252 c-4.9787,0.4648-9.5837,0.6994-13.8148,0.6994c-3.3842,0-7.4494-0.254-12.1942-0.7606c-4.7448-0.5081-8.3374-2.4554-10.7793-5.8403 c-0.1427-0.1688-0.2653-0.3392-0.3662-0.5081c-0.1957-0.3795-0.4008-0.6964-0.6157-0.9504 c-0.1487-0.127-0.3086-0.1913-0.4782-0.1913c-0.127,0-0.3071,0.0747-0.5417,0.2227c-0.2339,0.1464-0.6243,0.6246-1.1716,1.4271 c-2.0295,3.3012-3.2721,6.4306-3.7271,9.3925c-0.2533,1.6498-0.1487,3.9349,0.3119,6.8535 c0.4622,2.9186,2.4214,5.7221,5.8795,8.4091c3.4581,2.6855,7.8793,4.1351,13.2615,4.3473h0.4439 c7.3197,0,15.0455-1.07,23.1793-3.2055c8.1338-2.1371,16.3558-4.6447,24.6667-7.52c7.2237-2.412,14.2393-4.5685,21.0471-6.4724 c1.8789,5.6684,5.1682,10.0037,9.8685,13.009c4.7,3.0023,10.2002,4.9272,16.5015,5.7745c3.1495,0.4229,6.3532,0.6335,9.6114,0.6335 c3.2575,0,6.5688-0.2107,9.9335-0.6335c12.6062-1.6498,22.4713-4.4534,29.5941-8.4091c7.1225-3.9558,11.1037-8.1118,11.9424-12.4696 l0.0392-0.254C327.0765,245.6497,324.27,242.1587,318.0147,239.3671z M297.887,252.6616c-2.906,1.2897-9.01,1.9143-18.3098,1.8725 c-4.4721-0.0852-8.2888-0.5709-11.4525-1.4601c-3.1634-0.8877-5.3363-2.3059-6.518-4.2516c4.159-0.6353,7.826-1.0999,11.0027-1.3958 c3.1757-0.2974,6.5258-0.4872,10.0508-0.5709c7.6216-0.0433,12.7912,0.5918,15.5085,1.9039 C300.887,250.0687,300.7921,251.3704,297.887,252.6616z M467.2908,219.1236c0.7715,1.3121,1.0211,2.8558,0.748,4.6328 c-0.0777,0.5081-0.2048,1.0581-0.3804,1.6499c-0.891,2.4957-2.3866,4.5894-4.487,6.2826c-2.0997,1.6902-4.2924,2.539-6.577,2.539 c-2.2427,0-3.8675-0.8488-4.877-2.539c-0.8141-1.3122-1.0842-2.8559-0.8115-4.6328c0.0844-0.5514,0.2115-1.0999,0.3803-1.6498 c0.8907-2.4957,2.3963-4.5894,4.5184-6.2827c2.1214-1.6902,4.3029-2.539,6.5456-2.539 C464.6348,216.5846,466.2814,217.4334,467.2908,219.1236z M498.4999,129.9645c-1.7096-1.8202-4.023-2.7303-6.9416-2.7303 c-2.9194,0-5.8305,0.9101-8.7327,2.7303c-2.9029,1.8187-4.8898,4.5684-5.9628,8.2492l-14.0504,54.457 c-2.3693,4.4844-5.3348,8.7029-8.9072,12.6517c-3.695,4.0828-7.1957,7.4558-10.5021,10.1203 c-3.3079,2.6646-5.5619,4.1889-6.7623,4.5685c2.1718-4.7792,4.7897-10.1098,7.8503-15.9904 c2.5046-4.7373,4.8509-9.4134,7.0402-14.0252c2.1886-4.6103,3.8683-8.7992,5.0392-12.5652c0.2212-0.8892,0.3938-1.7335,0.5171-2.539 c0.6434-4.1874-0.0747-7.3601-2.155-9.518c-2.1519-2.2417-4.963-3.364-8.4312-3.364c-0.5077,0-1.0405,0.0224-1.5964,0.0643 c-4.2053,0.381-8.1749,2.264-11.9091,5.6489c-0.6116,0.6755-0.9504,1.2269-1.0155,1.6499l-0.0194,0.127 c0.0131,0.4648,0.1876,0.8458,0.5231,1.1417c0.3351,0.2959,0.6583,0.5291,0.9714,0.6979c0.1206,0.0419,0.2159,0.1046,0.288,0.1898 c1.0024,0.6352,1.6543,1.4182,1.9558,2.3478c0.3012,0.931,0.3871,1.8202,0.2571,2.6645c-0.1368,0.8892-0.4618,1.9039-0.9759,3.0472 c-1.685,3.8078-3.5881,7.9324-5.708,12.3739c-2.1239,4.7388-4.5453,8.8649-7.2628,12.3753 c-2.7191,3.5119-6.3192,6.6428-10.8028,9.3925c-0.8888,0.55-1.5867,0.8249-2.0941,0.8249c-0.4237,0-0.7113-0.1898-0.8638-0.5708 c-0.1244-0.2959-0.1375-0.7622-0.04-1.3958c0.1951-1.2703,0.7764-3.1309,1.7463-5.5862c1.6741-4.0185,3.6371-8.1222,5.8888-12.3096 c3.4869-6.178,6.0707-12.1213,7.7527-17.833c0.1192-0.5067,0.2189-1.0148,0.2974-1.5229c0.7274-4.7373-0.0418-8.2701-2.307-10.597 c-2.1165-2.1998-4.8461-3.2997-8.1876-3.2997c-0.55,0-1.1037,0.021-1.6596,0.0628c-4.0775,0.3796-7.9653,2.2835-11.6648,5.7117 c-0.5988,0.5933-0.931,1.0999-0.9956,1.5228l-0.0295,0.1898c-0.0284,0.4662,0.124,0.8459,0.4595,1.1418 c0.3351,0.2974,0.6594,0.5305,0.9718,0.6994l0.3515,0.1898c0.9594,0.6335,1.5781,1.4271,1.8554,2.3806 c0.276,0.9504,0.3437,1.8934,0.2006,2.823c-0.13,0.8473-0.4061,1.8187-0.8291,2.9186c-2.3612,5.4591-4.3988,10.05-6.1129,13.7711 c-1.6585,3.0891-3.2164,6.3469-4.6742,9.7736c-0.8031,1.9339-1.4653,3.6664-1.9962,5.2118 c-2.1645,2.2527-4.4929,4.2227-6.9943,5.8933c-0.8888,0.55-1.5867,0.8249-2.0941,0.8249c-0.5499,0-0.903-0.3168-1.0595-0.9519 c-0.0815-0.2959-0.083-0.6979-0.0052-1.206c0.2406-1.5647,1.1555-4.0828,2.7467-7.5529l11.2262-23.9228 c1.7918-3.6808,2.8244-6.2721,3.0979-7.774c0.272-1.5004,0.4125-2.273,0.4192-2.3164c0.4353-2.8349-0.1453-5.1184-1.7395-6.8534 c-1.6805-1.7336-4.9948-2.6018-9.9447-2.6018c-1.4384,0-3.1189,0.402-5.0396,1.206c-1.9222,0.804-3.6475,1.7769-5.1763,2.9186 c-1.713-2.6212-4.4512-3.9348-8.2164-3.9348c-2.1157,0-4.2258,0.3078-6.3281,0.9205c-2.1046,0.6142-4.2741,1.7246-6.509,3.3326 c-2.2364,1.608-4.5991,3.9124-7.0911,6.9162c-4.4153,5.3307-8.4413,11.3696-12.0795,18.117 c-3.509,6.5094-6.0754,12.7689-7.7184,18.7847c-1.2678,1.119-2.5347,2.0573-3.8005,2.7919 c-2.8805,1.6722-4.8068,2.5061-5.7793,2.5061c-0.6348,0-1.0129-0.296-1.1328-0.8878c-0.1046-0.4229-0.1013-0.9938,0.0093-1.7126 c0.2597-1.6917,1.0876-4.1904,2.483-7.4901c3.6685-8.4599,7.5932-16.9423,11.7769-25.4456 c3.5515-7.1494,6.7533-13.9505,9.6069-20.402c2.8521-6.4514,4.9286-12.2588,6.2295-17.419c0.1196-0.5081,0.219-1.0162,0.297-1.5243 c0.7342-4.7807-0.0317-8.3345-2.2973-10.6613c-2.1157-2.1983-4.8449-3.2997-8.1864-3.2997c-0.5507,0-1.1044,0.0224-1.66,0.0643 c-4.1265,0.4214-8.015,2.3268-11.6651,5.7102c-0.5985,0.5933-0.9307,1.0999-0.9953,1.5228l-0.0295,0.1913 c-0.0299,0.4663,0.1236,0.8474,0.459,1.1432c0.3355,0.2944,0.6583,0.5276,0.9714,0.6964c0.1143,0.0852,0.2313,0.1495,0.3516,0.1913 c0.9531,0.677,1.5717,1.4705,1.8557,2.3792c0.2828,0.9101,0.3568,1.8097,0.2204,2.6974c-0.1367,0.8892-0.4412,1.9039-0.912,3.0456 c-4.1339,9.5614-8.2881,18.6998-12.4605,27.4153l-0.3904,0.8877c0.0254-3.4685-0.822-6.0823-2.5398-7.8382 c-1.7201-1.7545-4.1231-2.6332-7.211-2.6332c-2.1157,0-4.2259,0.3078-6.3285,0.9205c-2.1042,0.6142-4.2741,1.7246-6.509,3.3326 c-2.2357,1.608-4.5987,3.9124-7.0907,6.9162c-9.2404,11.6775-15.668,24.1993-19.2867,37.5669 c-0.1592,0.7621-0.2974,1.5243-0.4147,2.2865c-0.6758,4.3996-0.2059,8.2283,1.4088,11.4846 c1.9051,3.8497,4.9769,5.8806,9.2177,6.0928c5.2585-0.0865,9.5938-1.3868,13.0056-3.9034c3.411-2.5166,6.1399-5.6161,8.1865-9.2969 c-0.0746,3.5134,0.5544,6.4425,1.8864,8.7888c1.3312,2.3492,3.3995,3.7556,6.2057,4.2202c0.6631,0.0837,1.3132,0.1271,1.9476,0.1271 c4.3151,0,8.8298-1.4392,13.5447-4.3144c3.0595-1.8424,5.8641-3.9456,8.432-6.2901c0.2778,1.6318,0.757,3.1616,1.4645,4.5759 c1.9058,3.8497,4.9768,5.8806,9.218,6.0928c5.2167-0.0865,9.5177-1.3763,12.9055-3.8705c3.3868-2.4957,6.1186-5.5429,8.1936-9.1385 c-0.0613,3.4268,0.5757,6.3035,1.9106,8.6304c1.3347,2.3268,3.3842,3.7226,6.1474,4.1873c0.6635,0.0837,1.3132,0.1271,1.9476,0.1271 c4.1885,0,8.3012-1.4392,12.3391-4.3144c2.5042-1.7392,4.8784-3.7099,7.1313-5.8966c0.1113,1.3642,0.3458,2.656,0.7197,3.8656 c1.0267,3.5104,3.2885,5.5847,6.7866,6.2183c0.622,0.0837,1.228,0.1271,1.8209,0.1271c3.3416,0,6.6431-0.9729,9.904-2.9187 c3.8257-2.3283,7.0877-5.2454,9.7847-8.7573c-1.7667,3.5119-3.5126,6.8953-5.2398,10.1531 c-7.3582,1.9039-12.7979,4.8868-16.3192,8.9487c-3.522,4.0603-5.6171,8.2702-6.2863,12.6279l-0.1367,0.8892 c-0.4969,4.6103,0.1965,8.4286,2.0799,11.4533c1.8837,3.0247,4.5169,4.5371,7.9019,4.5371c0.2955,0,0.6164-0.0224,0.9615-0.0628 c3.1204-0.2137,5.9852-1.0267,8.5938-2.4434c2.6071-1.4182,5.7267-4.3054,9.3574-8.6617c2.1438-2.666,4.2752-5.9344,6.3924-9.8049 c2.118-3.8721,4.0723-7.647,5.8649-11.3278c0.5499-1.1014,1.0711-2.1565,1.5662-3.1727c1.6849-0.5066,4.9286-2.4105,9.7294-5.7117 c4.8005-3.2997,9.8648-7.7635,15.1931-13.3886c1.2838-1.356,2.5044-2.7677,3.6681-4.2295c0.282,0.913,0.8225,1.6068,1.6349,2.0701 c0.8578,0.4677,1.7747,0.6994,2.7483,0.6994c1.0154,0,2.1079-0.2317,3.2803-0.6994c2.3481-0.9714,4.1702-2.9186,5.4651-5.8373 l26.2311-66.251c0.3677-1.0162,0.6165-1.9472,0.7465-2.7932C500.2402,133.0938,499.7792,131.2766,498.4999,129.9645z M306.311,181.2398l-0.0971,0.6337c-0.3908,1.989-0.9239,3.8078-1.5998,5.4576c-1.6663,3.6808-3.3228,7.4453-4.9713,11.2949 c-0.8398,1.608-1.5034,2.8977-1.9906,3.8721c-0.3646,0.7188-0.7554,1.469-1.1709,2.2521c-0.4169,0.7831-0.9631,1.7246-1.6401,2.8244 c-2.0855,3.3849-3.7958,5.3621-5.1311,5.9329c-1.336,0.5709-2.2573,0.8578-2.7655,0.8578c-1.0154,0-1.7253-0.6142-2.128-1.8411 c-0.229-0.7188-0.2515-1.6708-0.0695-2.8559c0.2794-1.8187,1.0655-4.1888,2.3608-7.1075c2.3836-5.3306,4.9058-10.322,7.5674-14.9756 c2.6601-4.6537,5.1879-7.8906,7.5835-9.7093c1.1739-0.7622,2.0795-1.1433,2.7139-1.1433c0.5073,0,0.8555,0.2122,1.0446,0.6352 C306.4732,178.2555,306.5711,179.5466,306.311,181.2398z M370.8367,181.2398l-0.0485,0.3154 c-0.3355,1.9039-0.8197,3.6807-1.4534,5.3306c-1.1813,3.0053-2.817,6.4948-4.9084,10.4714 c-2.0918,3.9767-3.9894,7.3825-5.6942,10.2174c-2.1284,3.3849-3.8485,5.3621-5.1628,5.9329 c-1.3151,0.5709-2.226,0.8578-2.7333,0.8578c-1.0581,0-1.7889-0.6142-2.1924-1.8411c-0.2286-0.7188-0.2514-1.6708-0.0695-2.8559 c0.2795-1.8187,1.0663-4.1888,2.3612-7.1075c2.4688-5.3306,5.1282-10.322,7.9799-14.9756c2.8503-4.6537,5.4734-7.8906,7.8687-9.7093 c1.1327-0.7622,2.0159-1.1433,2.6503-1.1433c0.4655,0,0.8167,0.1898,1.0551,0.5709 C370.9873,178.1912,371.1031,179.5048,370.8367,181.2398z M402.6165,245.4898c-1.5019,2.4763-2.7875,4.3055-3.8578,5.4905 c-0.3976,0.3796-0.7443,0.5709-1.0394,0.5709c-0.2541,0-0.4782-0.1913-0.674-0.5709c-0.2414-0.6351-0.2802-1.4809-0.1181-2.539 c0.0587-0.3811,0.1442-0.804,0.2586-1.2688c0.4715-1.6932,1.4817-3.4491,3.0299-5.2678c1.549-1.8188,3.7914-3.3416,6.7309-4.5685 C405.5605,240.2967,404.1169,243.0165,402.6165,245.4898z M105.8529,42.7317c-2.6127-3.0262-3.5635-6.849-2.8551-11.4638 c0.1755-1.1417,0.461-2.3568,0.8585-3.6479c1.9525-6.2541,6.917-12.072,14.8905-17.4579 c7.9743-5.3859,19.3064-8.723,33.9975-10.0127C153.9006,0.0493,155.0248,0,156.1172,0c2.7789,0,5.3427,0.2735,7.6911,0.8189 c3.3595,0.7443,5.7692,2.3448,7.2286,4.8016c1.4578,2.4569,1.868,5.77,1.2276,9.9395c-0.1218,0.7935-0.2768,1.6379-0.4632,2.5316 c-1.4915,6.1526-3.5575,12.3336-6.1967,18.5354c-2.6414,6.2064-5.5503,12.3844-8.729,18.5384 c2.832,0.2974,5.5668,0.5948,8.2011,0.8937c2.2435,0.2496,4.2352,0.3721,5.9729,0.3721c1.29,0,2.4179-0.0747,3.3841-0.2227 c1.2247-2.4822,2.421-4.939,3.5889-7.372c5.2387-10.5208,9.6831-19.8998,13.3303-28.1401c0.4961-1.2912,0.8204-2.4314,0.9732-3.4252 c0.1678-1.0909,0.1341-2.01-0.0982-2.7542c-0.417-1.49-1.1889-2.6063-2.3142-3.3505l-0.4124-0.2227 c-0.3677-0.1988-0.7469-0.4708-1.1403-0.819c-0.393-0.3467-0.5798-0.6695-0.5582-0.9683c0.0198-0.2974,0.0389-0.4947,0.0542-0.5948 c0.0759-0.4962,0.4652-1.091,1.1675-1.7859c4.3401-4.0215,7.869-6.154,10.5873-6.4036C202.3302,0.124,204.0114,0,204.657,0 c3.9199,0,7.1217,1.2912,9.6047,3.8706c2.6578,2.7303,3.5597,6.8743,2.7064,12.4336c-0.0915,0.5948-0.2087,1.1896-0.3489,1.7874 c-1.9413,7.792-4.7,15.572-8.2751,23.3385c-3.5758,7.7681-7.4187,15.4972-11.528,23.1905 c-6.1484,11.2665-11.2825,22.2356-15.4019,32.9043c-0.0964,0.299-0.2205,0.6232-0.3725,0.9699 c-1.1459,2.9291-1.8875,5.2619-2.2286,6.9969c-0.3415,1.738-0.5234,2.681-0.5462,2.8305c-0.4801,3.1248,0.1823,5.758,1.9891,7.8905 c0.1263,0.1495,0.2766,0.2974,0.4528,0.4454c0.3934,0.3482,0.6904,0.671,0.8933,0.9699c0.2021,0.2959,0.2806,0.5948,0.235,0.8921 c-0.015,0.0987-0.0598,0.2242-0.1315,0.3722c-0.21,0.3975-0.8459,0.8189-1.9065,1.2657c-3.0775,1.2912-6.0801,1.9368-9.0078,1.9368 c-1.2415,0-2.4879-0.1255-3.7397-0.3721c-4.0396-0.8458-7.1774-2.8798-9.4108-6.1062c-2.2346-3.225-2.947-7.4692-2.1393-12.7311 l0.1375-0.8936c1.181-6.4007,4.1269-14.5901,8.8358-24.567l2.1348-4.6895c-1.5389,0-3.8407-0.1987-6.9065-0.5948 c-3.754-0.4483-7.4512-0.7696-11.0928-0.9698l-2.6619,5.2125c-2.0571,4.02-3.7828,7.5828-5.1767,10.6822 c-1.3958,3.1024-2.7871,6.5904-4.1755,10.4595c-0.0956,0.299-0.2159,0.5978-0.3601,0.8937 c-1.153,2.9784-1.8993,5.3381-2.2402,7.0731c-0.3414,1.738-0.5238,2.681-0.5465,2.8305c-0.4801,3.1248,0.1823,5.758,1.9894,7.8905 c0.1255,0.1495,0.2761,0.2974,0.4521,0.4454c0.3938,0.3482,0.6908,0.671,0.8936,0.9699c0.2022,0.2959,0.281,0.5948,0.2354,0.8921 c-0.0157,0.0987-0.0601,0.2242-0.1315,0.3722c-0.21,0.3975-0.8458,0.8189-1.9069,1.2657c-3.0774,1.2912-6.0797,1.9368-9.0077,1.9368 c-1.2411,0-2.4874-0.1255-3.7398-0.3721c-4.0394-0.8458-7.177-2.8798-9.4104-6.1062c-2.2345-3.225-2.944-7.4931-2.128-12.8043 l0.1259-0.8204c0.9949-4.8614,2.9765-10.8182,5.9459-17.8659l4.6185-10.1995c-1.2366,0.2974-2.4531,0.6216-3.6479,0.9669 c-2.2027,0.4468-4.2583,1.0685-6.1671,1.862c-1.9084,0.7936-3.3808,1.8113-4.4142,3.0517 c-0.1307,0.2002-0.2562,0.3736-0.3781,0.5215c-0.2675,0.4469-0.5478,0.819-0.8414,1.1179 c-0.2948,0.2959-0.5896,0.4453-0.8877,0.4453h-0.1487c-0.2828-0.0986-0.5865-0.5455-0.9108-1.339 c-1.0473-2.8783-1.3151-5.9807-0.8044-9.3058l0.1371-0.8937c0.6631-3.6733,2.2106-6.961,4.6417-9.8647 c2.4307-2.9037,5.6758-4.8016,9.7343-5.6953c5.3714-1.0416,9.7441-1.5632,13.1192-1.5632 c1.6678-3.4252,3.3603-6.8489,5.0777-10.2741c3.933-7.8413,7.7288-15.9067,11.3842-24.1963 c0.9949-2.282,1.6312-4.3175,1.9054-6.1048c0.0688-0.4453,0.1076-0.8668,0.1203-1.2643c0.0445-1.5871-0.6276-2.3821-2.0167-2.3821 c-0.3979,0-0.8802,0.0732-1.4489,0.2227c-8.6699,3.7734-14.3629,7.8786-17.0798,12.3215c-2.7176,4.443-4.3577,8.5004-4.9219,12.1722 c-0.3049,1.9846-0.3904,3.9961-0.2563,6.03c0.0998,1.2912,0.2653,2.3089,0.4992,3.0531c0.1905,0.6949,0.2562,1.2404,0.1949,1.6379 l-0.0224,0.1479c-0.1689,0.4469-0.7682,0.795-1.7986,1.0432c-2.5812,0.6455-4.9129,0.9669-6.9973,0.9669 C111.2388,46.6038,108.0366,45.3141,105.8529,42.7317z M88.4317,182.5878c-0.6545-4.824-5.4472-9.7362-14.3779-14.7306 c10.6239-4.1141,18.748-9.8184,24.376-17.1187c4.2143-5.4367,6.7545-10.9706,7.6194-16.6031 c0.2933-1.9098,0.3202-5.2768,0.0822-10.1023c-0.2395-4.824-4.0507-9.9051-11.4335-15.2447 c-7.3847-5.3366-18.7928-8.1552-34.2239-8.4495c-14.4792,0.1973-26.2392,2.6227-35.2798,7.2734 c-9.0409,4.6552-15.5981,10.3594-19.6737,17.1187c-2.8204,4.6536-4.5775,9.2326-5.2694,13.7383 c-0.3161,2.0578-0.3333,5.2051-0.0542,9.4418c0.2802,4.2367,2.5585,8.2163,6.8355,11.9375 c3.1548,2.7437,7.2293,4.1141,12.2252,4.1141c1.8113,0,3.748-0.1718,5.8096-0.514c1.2127-0.2436,2.0167-0.538,2.4128-0.8818 c0.2249-0.1942,0.3538-0.3915,0.384-0.5873c0.0225-0.1464-0.0074-0.3556-0.0878-0.6231c-0.0814-0.269-0.3299-0.6501-0.7438-1.1403 c-0.2003-0.2929-0.4162-0.6366-0.6501-1.0282c-2.9365-5.4367-3.9602-11.0453-3.0725-16.8242 c0.2555-1.6648,1.1671-4.8121,2.7355-9.4403c1.5673-4.6283,5.4988-9.5749,11.794-14.8412 c6.2931-5.2649,13.1701-7.9459,20.6306-8.0445c9.3843,0.4408,15.8208,3.1846,19.3073,8.2283 c3.4025,4.948,4.601,10.7031,3.593,17.2651c-0.0303,0.1973-0.3434,2.0698-0.9366,5.6205c-0.5948,3.5507-3.2497,8.2404-7.965,14.0685 c-4.7156,5.8298-10.6112,9.7721-17.6858,11.8284c0.4293-0.8817,0.8293-1.738,1.2029-2.5719 c6.0655-12.3903,10.0781-22.4074,12.0354-30.047c0.1386-0.5888,0.2545-1.1761,0.3445-1.7634 c0.8499-5.5354-0.037-9.6495-2.6594-12.3425c-2.4994-2.548-5.7076-3.8212-9.6252-3.8212c-0.5881,0-2.2133,0.1345-4.8741,0.4035 c-2.6623,0.2704-6.1301,2.3641-10.4057,6.2825c-0.7001,0.7338-1.088,1.3465-1.1634,1.8367 c-0.015,0.0986-0.0336,0.2928-0.0538,0.5873c-0.0209,0.2944,0.1629,0.6127,0.5514,0.9549c0.3882,0.3438,0.7622,0.6143,1.1246,0.8085 c0.1875,0.0493,0.3235,0.1226,0.4072,0.2197c1.1111,0.7353,1.8763,1.8128,2.2951,3.234c0.2219,0.783,0.2548,1.6902,0.0968,2.7183 c-0.1506,0.9804-0.47,2.1057-0.9598,3.3789c-2.0523,4.7508-4.6866,10.5791-7.9018,17.4848 c-4.2252,9.0129-8.3169,18.111-12.2738,27.2943c-3.9576,9.1833-6.5258,16.4925-7.7026,21.9292l-0.068,0.4409 c-1.1134,7.2495,0.5664,12.7355,5.0399,16.4566c4.4721,3.7227,10.4087,6.0495,17.8091,6.979 c1.9204,0.2451,3.837,0.3677,5.7472,0.3677c7.1012,0,14.2879-1.8247,21.559-5.4741c7.2697-3.6479,13.2612-8.8515,17.9732-15.6108 c3.0202-4.3593,4.8726-8.7664,5.5574-13.2242C89.2223,191.0717,89.0867,187.4118,88.4317,182.5878z M62.8927,190.7788 c-0.4364,2.8409-1.4791,5.8043-3.1286,8.8903c-2.3201,4.2591-5.0885,8.0924-8.3045,11.4982 c-3.2175,3.4043-6.2012,5.7655-8.9502,7.088c-1.1111,0.5395-2.0832,0.8085-2.9156,0.8085c-1.225,0-2.1176-0.5634-2.6795-1.6902 c-0.4371-0.9773-0.4943-2.5211-0.1707-4.6282c0.316-2.0579,1.0121-4.6761,2.0892-7.8607c0.6848-1.9099,1.8004-4.7867,3.3464-8.6318 c1.5452-3.8452,3.1652-7.7756,4.8599-11.7926c1.6935-4.014,3.0934-7.224,4.1963-9.6241c6.8452,1.6663,10.7128,4.8733,11.599,9.6241 C63.2035,186.5181,63.2237,188.6253,62.8927,190.7788z" style="fill: rgb(253, 238, 251);"/></g></svg>